<mxfile host="app.diagrams.net" modified="2024-05-25T15:42:29.827Z" agent="Mozilla/5.0 (Windows NT 10.0; Win64; x64) AppleWebKit/537.36 (KHTML, like Gecko) Chrome/123.0.0.0 Safari/537.36 OPR/109.0.0.0 (Edition globalgames-sd)" etag="Af_vXJ2gpTOUYKuB_Ih4" version="24.4.8" type="device">
  <diagram name="Страница — 1" id="1cjMX76-iqyE2snQfIkZ">
    <mxGraphModel dx="2021" dy="2152" grid="1" gridSize="10" guides="1" tooltips="1" connect="1" arrows="1" fold="1" page="1" pageScale="1" pageWidth="827" pageHeight="1169" math="0" shadow="0">
      <root>
        <mxCell id="0" />
        <mxCell id="1" parent="0" />
        <mxCell id="qDvGrGwM_IY5RN48SABS-17" style="edgeStyle=orthogonalEdgeStyle;rounded=0;orthogonalLoop=1;jettySize=auto;html=1;exitX=0.5;exitY=0;exitDx=0;exitDy=0;entryX=0.5;entryY=1;entryDx=0;entryDy=0;" edge="1" parent="1" source="qDvGrGwM_IY5RN48SABS-1" target="qDvGrGwM_IY5RN48SABS-4">
          <mxGeometry relative="1" as="geometry" />
        </mxCell>
        <mxCell id="qDvGrGwM_IY5RN48SABS-1" value="Н_ЛЮДИ" style="rounded=0;whiteSpace=wrap;html=1;" vertex="1" parent="1">
          <mxGeometry x="50" y="500" width="120" height="40" as="geometry" />
        </mxCell>
        <mxCell id="qDvGrGwM_IY5RN48SABS-18" style="edgeStyle=orthogonalEdgeStyle;rounded=0;orthogonalLoop=1;jettySize=auto;html=1;exitX=0.5;exitY=0;exitDx=0;exitDy=0;entryX=0.5;entryY=1;entryDx=0;entryDy=0;" edge="1" parent="1" source="qDvGrGwM_IY5RN48SABS-2" target="qDvGrGwM_IY5RN48SABS-4">
          <mxGeometry relative="1" as="geometry" />
        </mxCell>
        <mxCell id="qDvGrGwM_IY5RN48SABS-2" value="Н_ВЕДОМОСТИ" style="rounded=0;whiteSpace=wrap;html=1;" vertex="1" parent="1">
          <mxGeometry x="280" y="500" width="120" height="40" as="geometry" />
        </mxCell>
        <mxCell id="qDvGrGwM_IY5RN48SABS-3" value="σ&amp;nbsp;⋈&amp;nbsp;π" style="rounded=0;whiteSpace=wrap;html=1;" vertex="1" parent="1">
          <mxGeometry x="247.5" y="640" width="130" height="40" as="geometry" />
        </mxCell>
        <mxCell id="qDvGrGwM_IY5RN48SABS-15" style="edgeStyle=orthogonalEdgeStyle;rounded=0;orthogonalLoop=1;jettySize=auto;html=1;exitX=0.5;exitY=0;exitDx=0;exitDy=0;entryX=0.5;entryY=1;entryDx=0;entryDy=0;" edge="1" parent="1" source="qDvGrGwM_IY5RN48SABS-4" target="qDvGrGwM_IY5RN48SABS-5">
          <mxGeometry relative="1" as="geometry" />
        </mxCell>
        <mxCell id="qDvGrGwM_IY5RN48SABS-4" value="⋈(Н_ЛЮДИ.ИД = Н_ВЕДОМОСТИ.ЧЛВК_ИД)" style="rounded=0;whiteSpace=wrap;html=1;" vertex="1" parent="1">
          <mxGeometry x="150" y="370" width="160" height="50" as="geometry" />
        </mxCell>
        <mxCell id="qDvGrGwM_IY5RN48SABS-16" style="edgeStyle=orthogonalEdgeStyle;rounded=0;orthogonalLoop=1;jettySize=auto;html=1;exitX=0.5;exitY=0;exitDx=0;exitDy=0;entryX=0.5;entryY=1;entryDx=0;entryDy=0;" edge="1" parent="1" source="qDvGrGwM_IY5RN48SABS-5" target="qDvGrGwM_IY5RN48SABS-6">
          <mxGeometry relative="1" as="geometry" />
        </mxCell>
        <mxCell id="qDvGrGwM_IY5RN48SABS-5" value="σ(Н_ЛЮДИ.ИМЯ &amp;lt; &#39;Владимир&#39;)" style="rounded=0;whiteSpace=wrap;html=1;" vertex="1" parent="1">
          <mxGeometry x="135" y="270" width="190" height="40" as="geometry" />
        </mxCell>
        <mxCell id="qDvGrGwM_IY5RN48SABS-20" style="edgeStyle=orthogonalEdgeStyle;rounded=0;orthogonalLoop=1;jettySize=auto;html=1;exitX=0.5;exitY=0;exitDx=0;exitDy=0;entryX=0.5;entryY=1;entryDx=0;entryDy=0;" edge="1" parent="1" source="qDvGrGwM_IY5RN48SABS-6" target="qDvGrGwM_IY5RN48SABS-19">
          <mxGeometry relative="1" as="geometry" />
        </mxCell>
        <mxCell id="qDvGrGwM_IY5RN48SABS-6" value="σ(Н_ВЕДОМОСТИ.ЧЛВК_ИД &amp;gt; 163249)" style="rounded=0;whiteSpace=wrap;html=1;" vertex="1" parent="1">
          <mxGeometry x="117.5" y="180" width="225" height="40" as="geometry" />
        </mxCell>
        <mxCell id="qDvGrGwM_IY5RN48SABS-22" style="edgeStyle=orthogonalEdgeStyle;rounded=0;orthogonalLoop=1;jettySize=auto;html=1;exitX=0.5;exitY=0;exitDx=0;exitDy=0;entryX=0.5;entryY=1;entryDx=0;entryDy=0;" edge="1" parent="1" source="qDvGrGwM_IY5RN48SABS-19" target="qDvGrGwM_IY5RN48SABS-21">
          <mxGeometry relative="1" as="geometry" />
        </mxCell>
        <mxCell id="qDvGrGwM_IY5RN48SABS-19" value="π(Н_ЛЮДИ.ИД, Н_ВЕДОМОСТИ.ИД)" style="rounded=0;whiteSpace=wrap;html=1;" vertex="1" parent="1">
          <mxGeometry x="163.75" y="110" width="132.5" height="40" as="geometry" />
        </mxCell>
        <mxCell id="qDvGrGwM_IY5RN48SABS-21" value="Result" style="rounded=0;whiteSpace=wrap;html=1;" vertex="1" parent="1">
          <mxGeometry x="170" y="30" width="120" height="40" as="geometry" />
        </mxCell>
        <mxCell id="qDvGrGwM_IY5RN48SABS-31" style="edgeStyle=orthogonalEdgeStyle;rounded=0;orthogonalLoop=1;jettySize=auto;html=1;exitX=0.5;exitY=0;exitDx=0;exitDy=0;entryX=0.5;entryY=1;entryDx=0;entryDy=0;" edge="1" parent="1" source="qDvGrGwM_IY5RN48SABS-23" target="qDvGrGwM_IY5RN48SABS-30">
          <mxGeometry relative="1" as="geometry" />
        </mxCell>
        <mxCell id="qDvGrGwM_IY5RN48SABS-23" value="Н_ВЕДОМОСТИ" style="rounded=0;whiteSpace=wrap;html=1;" vertex="1" parent="1">
          <mxGeometry x="810" y="500" width="120" height="40" as="geometry" />
        </mxCell>
        <mxCell id="qDvGrGwM_IY5RN48SABS-29" style="edgeStyle=orthogonalEdgeStyle;rounded=0;orthogonalLoop=1;jettySize=auto;html=1;exitX=0.5;exitY=0;exitDx=0;exitDy=0;entryX=0.5;entryY=1;entryDx=0;entryDy=0;" edge="1" parent="1" source="qDvGrGwM_IY5RN48SABS-24" target="qDvGrGwM_IY5RN48SABS-25">
          <mxGeometry relative="1" as="geometry" />
        </mxCell>
        <mxCell id="qDvGrGwM_IY5RN48SABS-24" value="Н_ЛЮДИ" style="rounded=0;whiteSpace=wrap;html=1;" vertex="1" parent="1">
          <mxGeometry x="560" y="500" width="120" height="40" as="geometry" />
        </mxCell>
        <mxCell id="qDvGrGwM_IY5RN48SABS-33" style="edgeStyle=orthogonalEdgeStyle;rounded=0;orthogonalLoop=1;jettySize=auto;html=1;exitX=0.5;exitY=0;exitDx=0;exitDy=0;entryX=0.5;entryY=1;entryDx=0;entryDy=0;" edge="1" parent="1" source="qDvGrGwM_IY5RN48SABS-25" target="qDvGrGwM_IY5RN48SABS-32">
          <mxGeometry relative="1" as="geometry" />
        </mxCell>
        <mxCell id="qDvGrGwM_IY5RN48SABS-25" value="σ(Н_ЛЮДИ.ИМЯ &amp;lt; &#39;Владимир&#39;)" style="rounded=0;whiteSpace=wrap;html=1;" vertex="1" parent="1">
          <mxGeometry x="530" y="410" width="180" height="40" as="geometry" />
        </mxCell>
        <mxCell id="qDvGrGwM_IY5RN48SABS-34" style="edgeStyle=orthogonalEdgeStyle;rounded=0;orthogonalLoop=1;jettySize=auto;html=1;exitX=0.5;exitY=0;exitDx=0;exitDy=0;entryX=0.5;entryY=1;entryDx=0;entryDy=0;" edge="1" parent="1" source="qDvGrGwM_IY5RN48SABS-30" target="qDvGrGwM_IY5RN48SABS-32">
          <mxGeometry relative="1" as="geometry" />
        </mxCell>
        <mxCell id="qDvGrGwM_IY5RN48SABS-30" value="σ(Н_ВЕДОМОСТИ.ЧЛВК_ИД &amp;gt; 163249)" style="rounded=0;whiteSpace=wrap;html=1;" vertex="1" parent="1">
          <mxGeometry x="757.5" y="410" width="225" height="40" as="geometry" />
        </mxCell>
        <mxCell id="qDvGrGwM_IY5RN48SABS-36" style="edgeStyle=orthogonalEdgeStyle;rounded=0;orthogonalLoop=1;jettySize=auto;html=1;exitX=0.5;exitY=0;exitDx=0;exitDy=0;entryX=0.5;entryY=1;entryDx=0;entryDy=0;" edge="1" parent="1" source="qDvGrGwM_IY5RN48SABS-32" target="qDvGrGwM_IY5RN48SABS-35">
          <mxGeometry relative="1" as="geometry" />
        </mxCell>
        <mxCell id="qDvGrGwM_IY5RN48SABS-32" value="⋈(Н_ЛЮДИ.ИД = Н_ВЕДОМОСТИ.ЧЛВК_ИД)" style="rounded=0;whiteSpace=wrap;html=1;" vertex="1" parent="1">
          <mxGeometry x="666.25" y="300" width="160" height="50" as="geometry" />
        </mxCell>
        <mxCell id="qDvGrGwM_IY5RN48SABS-38" style="edgeStyle=orthogonalEdgeStyle;rounded=0;orthogonalLoop=1;jettySize=auto;html=1;exitX=0.5;exitY=0;exitDx=0;exitDy=0;entryX=0.5;entryY=1;entryDx=0;entryDy=0;" edge="1" parent="1" source="qDvGrGwM_IY5RN48SABS-35" target="qDvGrGwM_IY5RN48SABS-37">
          <mxGeometry relative="1" as="geometry" />
        </mxCell>
        <mxCell id="qDvGrGwM_IY5RN48SABS-35" value="π(Н_ЛЮДИ.ИД, Н_ВЕДОМОСТИ.ИД)" style="rounded=0;whiteSpace=wrap;html=1;" vertex="1" parent="1">
          <mxGeometry x="680.75" y="220" width="132.5" height="40" as="geometry" />
        </mxCell>
        <mxCell id="qDvGrGwM_IY5RN48SABS-37" value="Result" style="rounded=0;whiteSpace=wrap;html=1;" vertex="1" parent="1">
          <mxGeometry x="686.25" y="140" width="120" height="40" as="geometry" />
        </mxCell>
        <mxCell id="qDvGrGwM_IY5RN48SABS-39" value="" style="shape=link;html=1;rounded=0;" edge="1" parent="1">
          <mxGeometry width="100" relative="1" as="geometry">
            <mxPoint x="1080" as="sourcePoint" />
            <mxPoint x="1080" y="720" as="targetPoint" />
          </mxGeometry>
        </mxCell>
        <mxCell id="qDvGrGwM_IY5RN48SABS-48" style="edgeStyle=orthogonalEdgeStyle;rounded=0;orthogonalLoop=1;jettySize=auto;html=1;exitX=0.5;exitY=0;exitDx=0;exitDy=0;entryX=0.5;entryY=1;entryDx=0;entryDy=0;" edge="1" parent="1" source="qDvGrGwM_IY5RN48SABS-40" target="qDvGrGwM_IY5RN48SABS-47">
          <mxGeometry relative="1" as="geometry" />
        </mxCell>
        <mxCell id="qDvGrGwM_IY5RN48SABS-40" value="Н_ЛЮДИ" style="rounded=0;whiteSpace=wrap;html=1;" vertex="1" parent="1">
          <mxGeometry x="1250" y="510" width="120" height="40" as="geometry" />
        </mxCell>
        <mxCell id="qDvGrGwM_IY5RN48SABS-50" style="edgeStyle=orthogonalEdgeStyle;rounded=0;orthogonalLoop=1;jettySize=auto;html=1;exitX=0.5;exitY=0;exitDx=0;exitDy=0;entryX=0.5;entryY=1;entryDx=0;entryDy=0;" edge="1" parent="1" source="qDvGrGwM_IY5RN48SABS-41" target="qDvGrGwM_IY5RN48SABS-47">
          <mxGeometry relative="1" as="geometry" />
        </mxCell>
        <mxCell id="qDvGrGwM_IY5RN48SABS-41" value="Н_ВЕДОМОСТИ" style="rounded=0;whiteSpace=wrap;html=1;" vertex="1" parent="1">
          <mxGeometry x="1450" y="510" width="120" height="40" as="geometry" />
        </mxCell>
        <mxCell id="qDvGrGwM_IY5RN48SABS-53" style="edgeStyle=orthogonalEdgeStyle;rounded=0;orthogonalLoop=1;jettySize=auto;html=1;exitX=0.5;exitY=0;exitDx=0;exitDy=0;entryX=0.5;entryY=1;entryDx=0;entryDy=0;" edge="1" parent="1" source="qDvGrGwM_IY5RN48SABS-42" target="qDvGrGwM_IY5RN48SABS-51">
          <mxGeometry relative="1" as="geometry" />
        </mxCell>
        <mxCell id="qDvGrGwM_IY5RN48SABS-42" value="Н_СЕССИЯ" style="rounded=0;whiteSpace=wrap;html=1;" vertex="1" parent="1">
          <mxGeometry x="1670" y="405" width="120" height="40" as="geometry" />
        </mxCell>
        <mxCell id="qDvGrGwM_IY5RN48SABS-65" style="edgeStyle=orthogonalEdgeStyle;rounded=0;orthogonalLoop=1;jettySize=auto;html=1;exitX=0.5;exitY=0;exitDx=0;exitDy=0;entryX=0.5;entryY=1;entryDx=0;entryDy=0;" edge="1" parent="1" source="qDvGrGwM_IY5RN48SABS-43" target="qDvGrGwM_IY5RN48SABS-64">
          <mxGeometry relative="1" as="geometry" />
        </mxCell>
        <mxCell id="qDvGrGwM_IY5RN48SABS-43" value="Н_ЛЮДИ" style="rounded=0;whiteSpace=wrap;html=1;" vertex="1" parent="1">
          <mxGeometry x="1960" y="510" width="120" height="40" as="geometry" />
        </mxCell>
        <mxCell id="qDvGrGwM_IY5RN48SABS-67" style="edgeStyle=orthogonalEdgeStyle;rounded=0;orthogonalLoop=1;jettySize=auto;html=1;exitX=0.5;exitY=0;exitDx=0;exitDy=0;entryX=0.5;entryY=1;entryDx=0;entryDy=0;" edge="1" parent="1" source="qDvGrGwM_IY5RN48SABS-44" target="qDvGrGwM_IY5RN48SABS-66">
          <mxGeometry relative="1" as="geometry" />
        </mxCell>
        <mxCell id="qDvGrGwM_IY5RN48SABS-44" value="Н_ВЕДОМОСТИ" style="rounded=0;whiteSpace=wrap;html=1;" vertex="1" parent="1">
          <mxGeometry x="2195" y="510" width="120" height="40" as="geometry" />
        </mxCell>
        <mxCell id="qDvGrGwM_IY5RN48SABS-73" style="edgeStyle=orthogonalEdgeStyle;rounded=0;orthogonalLoop=1;jettySize=auto;html=1;exitX=0.5;exitY=0;exitDx=0;exitDy=0;entryX=0.5;entryY=1;entryDx=0;entryDy=0;" edge="1" parent="1" source="qDvGrGwM_IY5RN48SABS-45" target="qDvGrGwM_IY5RN48SABS-68">
          <mxGeometry relative="1" as="geometry" />
        </mxCell>
        <mxCell id="qDvGrGwM_IY5RN48SABS-45" value="Н_СЕССИЯ" style="rounded=0;whiteSpace=wrap;html=1;" vertex="1" parent="1">
          <mxGeometry x="2500" y="405" width="120" height="40" as="geometry" />
        </mxCell>
        <mxCell id="qDvGrGwM_IY5RN48SABS-46" value="σ&amp;nbsp;&lt;div&gt;⋈&lt;/div&gt;&lt;div&gt;π&lt;/div&gt;" style="rounded=0;whiteSpace=wrap;html=1;" vertex="1" parent="1">
          <mxGeometry x="1200" y="640" width="130" height="60" as="geometry" />
        </mxCell>
        <mxCell id="qDvGrGwM_IY5RN48SABS-52" style="edgeStyle=orthogonalEdgeStyle;rounded=0;orthogonalLoop=1;jettySize=auto;html=1;exitX=0.5;exitY=0;exitDx=0;exitDy=0;entryX=0.5;entryY=1;entryDx=0;entryDy=0;" edge="1" parent="1" source="qDvGrGwM_IY5RN48SABS-47" target="qDvGrGwM_IY5RN48SABS-51">
          <mxGeometry relative="1" as="geometry" />
        </mxCell>
        <mxCell id="qDvGrGwM_IY5RN48SABS-47" value="⋈(Н_ЛЮДИ.ИД = Н_ВЕДОМОСТИ.ЧЛВК_ИД)" style="rounded=0;whiteSpace=wrap;html=1;" vertex="1" parent="1">
          <mxGeometry x="1330" y="405" width="160" height="50" as="geometry" />
        </mxCell>
        <mxCell id="qDvGrGwM_IY5RN48SABS-55" style="edgeStyle=orthogonalEdgeStyle;rounded=0;orthogonalLoop=1;jettySize=auto;html=1;exitX=0.5;exitY=0;exitDx=0;exitDy=0;entryX=0.5;entryY=1;entryDx=0;entryDy=0;" edge="1" parent="1" source="qDvGrGwM_IY5RN48SABS-51" target="qDvGrGwM_IY5RN48SABS-54">
          <mxGeometry relative="1" as="geometry" />
        </mxCell>
        <mxCell id="qDvGrGwM_IY5RN48SABS-51" value="⋈(Н_ЛЮДИ.ИД = Н_СЕССИЯ.ЧЛВК_ИД)" style="rounded=0;whiteSpace=wrap;html=1;" vertex="1" parent="1">
          <mxGeometry x="1490" y="300" width="160" height="50" as="geometry" />
        </mxCell>
        <mxCell id="qDvGrGwM_IY5RN48SABS-57" style="edgeStyle=orthogonalEdgeStyle;rounded=0;orthogonalLoop=1;jettySize=auto;html=1;exitX=0.5;exitY=0;exitDx=0;exitDy=0;entryX=0.5;entryY=1;entryDx=0;entryDy=0;" edge="1" parent="1" source="qDvGrGwM_IY5RN48SABS-54" target="qDvGrGwM_IY5RN48SABS-56">
          <mxGeometry relative="1" as="geometry" />
        </mxCell>
        <mxCell id="qDvGrGwM_IY5RN48SABS-54" value="σ(Н_ЛЮДИ.ФАМИЛИЯ &amp;gt; &#39;Петров&#39;)" style="rounded=0;whiteSpace=wrap;html=1;" vertex="1" parent="1">
          <mxGeometry x="1470" y="220" width="200" height="40" as="geometry" />
        </mxCell>
        <mxCell id="qDvGrGwM_IY5RN48SABS-59" style="edgeStyle=orthogonalEdgeStyle;rounded=0;orthogonalLoop=1;jettySize=auto;html=1;exitX=0.5;exitY=0;exitDx=0;exitDy=0;entryX=0.5;entryY=1;entryDx=0;entryDy=0;" edge="1" parent="1" source="qDvGrGwM_IY5RN48SABS-56" target="qDvGrGwM_IY5RN48SABS-58">
          <mxGeometry relative="1" as="geometry" />
        </mxCell>
        <mxCell id="qDvGrGwM_IY5RN48SABS-56" value="σ(Н_ВЕДОМОСТИ.ДАТА &amp;lt; &#39;2010-06-18&#39;)" style="rounded=0;whiteSpace=wrap;html=1;" vertex="1" parent="1">
          <mxGeometry x="1455" y="150" width="230" height="40" as="geometry" />
        </mxCell>
        <mxCell id="qDvGrGwM_IY5RN48SABS-61" style="edgeStyle=orthogonalEdgeStyle;rounded=0;orthogonalLoop=1;jettySize=auto;html=1;exitX=0.5;exitY=0;exitDx=0;exitDy=0;entryX=0.5;entryY=1;entryDx=0;entryDy=0;" edge="1" parent="1" source="qDvGrGwM_IY5RN48SABS-58" target="qDvGrGwM_IY5RN48SABS-60">
          <mxGeometry relative="1" as="geometry" />
        </mxCell>
        <mxCell id="qDvGrGwM_IY5RN48SABS-58" value="σ(Н_СЕССИЯ.ИД &amp;gt; 14)" style="rounded=0;whiteSpace=wrap;html=1;" vertex="1" parent="1">
          <mxGeometry x="1470" y="80" width="200" height="40" as="geometry" />
        </mxCell>
        <mxCell id="qDvGrGwM_IY5RN48SABS-63" style="edgeStyle=orthogonalEdgeStyle;rounded=0;orthogonalLoop=1;jettySize=auto;html=1;exitX=0.5;exitY=0;exitDx=0;exitDy=0;entryX=0.5;entryY=1;entryDx=0;entryDy=0;" edge="1" parent="1" source="qDvGrGwM_IY5RN48SABS-60" target="qDvGrGwM_IY5RN48SABS-62">
          <mxGeometry relative="1" as="geometry" />
        </mxCell>
        <mxCell id="qDvGrGwM_IY5RN48SABS-60" value="π(Н_ЛЮДИ.ИМЯ, Н_ВЕДОМОСТИ.ИД, Н_СЕССИЯ.ЧЛВК_ИД&lt;span style=&quot;background-color: initial;&quot;&gt;)&lt;/span&gt;" style="rounded=0;whiteSpace=wrap;html=1;" vertex="1" parent="1">
          <mxGeometry x="1491.88" y="-10" width="156.25" height="50" as="geometry" />
        </mxCell>
        <mxCell id="qDvGrGwM_IY5RN48SABS-62" value="Result" style="rounded=0;whiteSpace=wrap;html=1;" vertex="1" parent="1">
          <mxGeometry x="1510" y="-80" width="120" height="40" as="geometry" />
        </mxCell>
        <mxCell id="qDvGrGwM_IY5RN48SABS-70" style="edgeStyle=orthogonalEdgeStyle;rounded=0;orthogonalLoop=1;jettySize=auto;html=1;exitX=0.5;exitY=0;exitDx=0;exitDy=0;entryX=0.5;entryY=1;entryDx=0;entryDy=0;" edge="1" parent="1" source="qDvGrGwM_IY5RN48SABS-64" target="qDvGrGwM_IY5RN48SABS-69">
          <mxGeometry relative="1" as="geometry" />
        </mxCell>
        <mxCell id="qDvGrGwM_IY5RN48SABS-64" value="σ(Н_ЛЮДИ.ФАМИЛИЯ &amp;gt; &#39;Петров&#39;)" style="rounded=0;whiteSpace=wrap;html=1;" vertex="1" parent="1">
          <mxGeometry x="1920" y="405" width="200" height="40" as="geometry" />
        </mxCell>
        <mxCell id="qDvGrGwM_IY5RN48SABS-72" style="edgeStyle=orthogonalEdgeStyle;rounded=0;orthogonalLoop=1;jettySize=auto;html=1;exitX=0.5;exitY=0;exitDx=0;exitDy=0;entryX=0.5;entryY=1;entryDx=0;entryDy=0;" edge="1" parent="1" source="qDvGrGwM_IY5RN48SABS-66" target="qDvGrGwM_IY5RN48SABS-69">
          <mxGeometry relative="1" as="geometry" />
        </mxCell>
        <mxCell id="qDvGrGwM_IY5RN48SABS-66" value="σ(Н_ВЕДОМОСТИ.ДАТА &amp;lt; &#39;2010-06-18&#39;)" style="rounded=0;whiteSpace=wrap;html=1;" vertex="1" parent="1">
          <mxGeometry x="2140" y="405" width="230" height="40" as="geometry" />
        </mxCell>
        <mxCell id="qDvGrGwM_IY5RN48SABS-76" style="edgeStyle=orthogonalEdgeStyle;rounded=0;orthogonalLoop=1;jettySize=auto;html=1;exitX=0.5;exitY=0;exitDx=0;exitDy=0;entryX=0.5;entryY=1;entryDx=0;entryDy=0;" edge="1" parent="1" source="qDvGrGwM_IY5RN48SABS-68" target="qDvGrGwM_IY5RN48SABS-75">
          <mxGeometry relative="1" as="geometry" />
        </mxCell>
        <mxCell id="qDvGrGwM_IY5RN48SABS-68" value="σ(Н_СЕССИЯ.ИД &amp;gt; 14)" style="rounded=0;whiteSpace=wrap;html=1;" vertex="1" parent="1">
          <mxGeometry x="2460" y="300" width="200" height="40" as="geometry" />
        </mxCell>
        <mxCell id="qDvGrGwM_IY5RN48SABS-77" style="edgeStyle=orthogonalEdgeStyle;rounded=0;orthogonalLoop=1;jettySize=auto;html=1;exitX=0.5;exitY=0;exitDx=0;exitDy=0;entryX=0.5;entryY=1;entryDx=0;entryDy=0;" edge="1" parent="1" source="qDvGrGwM_IY5RN48SABS-69" target="qDvGrGwM_IY5RN48SABS-75">
          <mxGeometry relative="1" as="geometry" />
        </mxCell>
        <mxCell id="qDvGrGwM_IY5RN48SABS-69" value="⋈(Н_ЛЮДИ.ИД = Н_ВЕДОМОСТИ.ЧЛВК_ИД)" style="rounded=0;whiteSpace=wrap;html=1;" vertex="1" parent="1">
          <mxGeometry x="2060" y="300" width="160" height="50" as="geometry" />
        </mxCell>
        <mxCell id="qDvGrGwM_IY5RN48SABS-79" style="edgeStyle=orthogonalEdgeStyle;rounded=0;orthogonalLoop=1;jettySize=auto;html=1;exitX=0.5;exitY=0;exitDx=0;exitDy=0;entryX=0.5;entryY=1;entryDx=0;entryDy=0;" edge="1" parent="1" source="qDvGrGwM_IY5RN48SABS-75" target="qDvGrGwM_IY5RN48SABS-78">
          <mxGeometry relative="1" as="geometry" />
        </mxCell>
        <mxCell id="qDvGrGwM_IY5RN48SABS-75" value="⋈(Н_ЛЮДИ.ИД = Н_СЕССИЯ.ЧЛВК_ИД)" style="rounded=0;whiteSpace=wrap;html=1;" vertex="1" parent="1">
          <mxGeometry x="2270.01" y="170" width="160" height="50" as="geometry" />
        </mxCell>
        <mxCell id="qDvGrGwM_IY5RN48SABS-81" style="edgeStyle=orthogonalEdgeStyle;rounded=0;orthogonalLoop=1;jettySize=auto;html=1;exitX=0.5;exitY=0;exitDx=0;exitDy=0;entryX=0.5;entryY=1;entryDx=0;entryDy=0;" edge="1" parent="1" source="qDvGrGwM_IY5RN48SABS-78" target="qDvGrGwM_IY5RN48SABS-80">
          <mxGeometry relative="1" as="geometry" />
        </mxCell>
        <mxCell id="qDvGrGwM_IY5RN48SABS-78" value="π(Н_ЛЮДИ.ИМЯ, Н_ВЕДОМОСТИ.ИД, Н_СЕССИЯ.ЧЛВК_ИД&lt;span style=&quot;background-color: initial;&quot;&gt;)&lt;/span&gt;" style="rounded=0;whiteSpace=wrap;html=1;" vertex="1" parent="1">
          <mxGeometry x="2271.8900000000003" y="75" width="156.25" height="50" as="geometry" />
        </mxCell>
        <mxCell id="qDvGrGwM_IY5RN48SABS-80" value="Result" style="rounded=0;whiteSpace=wrap;html=1;" vertex="1" parent="1">
          <mxGeometry x="2290.0200000000004" y="-5" width="120" height="40" as="geometry" />
        </mxCell>
      </root>
    </mxGraphModel>
  </diagram>
</mxfile>
